<svg xmlns="http://www.w3.org/2000/svg" viewBox="0 0 511.83 512.17" fill-rule="evenodd" xmlns:v="https://vecta.io/nano"><rect x="5.045" y="5.045" width="501.74" height="502.08" ry="46.882" fill="#282a36" stroke="#44475a" stroke-linejoin="round" stroke-width="10.09"/><path d="M480.208 114.973l-184.37 57.456c-13.848 4.316-23.187 16.435-23.18 30.083l.011 23.294c.002 5.296 2.727 10.267 7.323 13.362s10.504 3.935 15.877 2.259l184.34-57.504zm0 112.04l-184.37 57.456c-13.848 4.316-23.187 16.435-23.18 30.083l.011 23.294c.002 5.296 2.727 10.267 7.323 13.362s10.504 3.935 15.877 2.259l184.34-57.504zm0 112.04l-184.37 57.456c-13.848 4.316-23.187 16.435-23.18 30.083l.011 23.294c.002 5.296 2.727 10.267 7.323 13.362s10.504 3.935 15.877 2.259l184.34-57.504z" fill="#bd93f9"/><path d="M255.828 20.166L50.618 84.118c-18.388 5.73-30.791 21.818-30.791 39.939v42.737c0 18.121 12.403 34.208 30.791 39.939l188.94 58.88a54.86 54.86 0 0 0 32.543 0l215.65-67.202c2.438-.76 4.082-2.893 4.082-5.296v-.572c.001-1.98-2.074-3.379-4.084-2.752l-194.21 60.486c-14.808 4.612-30.097-5.694-30.096-20.286l.004-26.825c.002-17.714 12.127-33.438 30.101-39.04l194.2-60.52c2.438-.76 4.082-2.893 4.082-5.296v-.572c0-2.403-1.644-4.536-4.082-5.296zm232.74 186.72a3.29 3.29 0 0 0-.821.145l-215.65 67.202a54.86 54.86 0 0 1-32.543 0l-188.94-58.88c-15.148-4.721-30.792 5.821-30.791 20.748v42.737c0 18.121 12.403 34.208 30.791 39.939l188.94 58.88a54.86 54.86 0 0 0 32.543 0l215.65-67.202c2.438-.76 4.082-2.893 4.082-5.296v-.572c-.001-1.976-2.075-3.369-4.078-2.739l-194.25 61.144c-14.711 4.631-29.916-5.683-29.77-20.195l.281-27.858c.178-17.746 12.387-33.428 30.395-39.04l193.34-60.25c2.438-.76 4.082-2.893 4.082-5.296v-.572c0-1.66-1.488-2.98-3.261-2.895zm0 112.04a3.29 3.29 0 0 0-.821.146l-215.65 67.202a54.86 54.86 0 0 1-32.543 0l-188.94-58.88c-15.148-4.721-30.792 5.821-30.791 20.748v42.737c0 18.121 12.403 34.208 30.791 39.939l188.94 58.88a54.86 54.86 0 0 0 32.543 0l215.65-67.202c2.438-.76 4.082-2.893 4.082-5.296v-.572c.001-1.977-2.074-3.371-4.078-2.741l-194.25 61.146c-14.711 4.631-29.916-5.683-29.77-20.195l.281-27.859c.178-17.745 12.388-33.427 30.395-39.038l193.34-60.25c2.438-.76 4.082-2.893 4.082-5.296v-.572c.001-1.66-1.487-2.982-3.261-2.897z" fill="#ff79c6"/></svg>