<svg xmlns="http://www.w3.org/2000/svg" viewBox="0 0 414.07 108.351" xmlns:v="https://vecta.io/nano"><style>.B{animation:rise 0.5s ease-out forwards, fade 1s ease-in forwards}.A{animation:fall 0.5s ease-out forwards, fade 1s ease-in forwards}#H{animation-delay:0s}#G{animation-delay:0.1s}#F{animation-delay:0.2s}#E{animation-delay:0.3s}#D{animation-delay:0.4s}#C{animation-delay:0.5s}#B{animation-delay:0s}@keyframes fall{from{transform:translateY(0px)}to{transform:translateY(10px)}} @keyframes rise{from{transform:translateY(20px)}to{transform:translateY(10px)}} @keyframes fade{from{opacity:0}to{opacity:1}}</style><g  filter="drop-shadow(0px 0px 2px black)"><g id="B" opacity="0" class="A" transform="translate(0 20)"><path d="M80.573 17.747L48.308 28.502a5.933 5.933 0 0 0-4.057 5.631l.002 4.36a3.084 3.084 0 0 0 4.06 2.924l32.26-10.764zm0 20.973L48.308 49.475a5.933 5.933 0 0 0-4.057 5.631l.002 4.36a3.084 3.084 0 0 0 4.06 2.924l32.26-10.764zm0 20.973L48.308 70.449a5.933 5.933 0 0 0-4.057 5.631l.002 4.36a3.084 3.084 0 0 0 4.06 2.924L80.573 72.6z" fill="#bd93f9"/><path d="M41.301 0L5.389 11.971a7.88 7.88 0 0 0-5.388 7.476v8a7.88 7.88 0 0 0 5.388 7.476l33.064 11.021c1.848.616 3.847.616 5.695 0l37.739-12.579c.427-.142.714-.542.714-.991v-.107c0-.371-.363-.632-.715-.515L47.9 43.073c-2.591.863-5.267-1.066-5.267-3.797v-5.021c0-3.316 2.122-6.259 5.268-7.308l33.985-11.328c.427-.142.714-.542.714-.991v-.107c0-.45-.288-.849-.714-.991zM82.03 34.951a.59.59 0 0 0-.144.027L44.148 47.557c-1.848.616-3.847.616-5.695 0L5.388 36.536C2.738 35.652 0 37.625 0 40.42v8a7.88 7.88 0 0 0 5.388 7.476l33.064 11.021c1.848.616 3.847.616 5.695 0l37.739-12.579c.427-.142.714-.542.714-.991v-.107a.54.54 0 0 0-.714-.513L47.894 64.172c-2.574.867-5.235-1.064-5.21-3.78l.049-5.214a7.78 7.78 0 0 1 5.319-7.308l33.834-11.278c.427-.142.714-.542.714-.991v-.107c0-.311-.26-.558-.571-.542zm0 20.972a.55.55 0 0 0-.144.027L44.148 68.53c-1.848.616-3.847.616-5.695 0L5.388 57.508C2.738 56.625 0 58.598 0 61.392v8a7.88 7.88 0 0 0 5.388 7.476l33.064 11.021c1.848.616 3.847.616 5.695 0l37.74-12.579c.427-.142.714-.542.714-.991v-.107a.54.54 0 0 0-.714-.513L47.894 85.144c-2.574.867-5.235-1.064-5.21-3.78l.049-5.215a7.78 7.78 0 0 1 5.319-7.307l33.834-11.278c.427-.142.714-.542.714-.991v-.107c0-.311-.26-.558-.571-.542z" fill="#ff79c6"/></g><g id="C" opacity="0" class="B"><path d="M371.115 79.619a24.85 24.85 0 0 1-6.385-.833c-2.098-.679-4.133-1.604-6.108-2.776-3.27-2.159-5.861-4.966-7.773-8.421-1.851-3.455-2.776-7.187-2.776-11.197h15.639c0 1.851.401 3.27 1.203 4.257.802 1.049 1.511 1.758 2.128 2.128a7 7 0 0 0 3.609 1.203c1.172.062 2.437-.185 3.794-.74.864-.37 1.573-.833 2.128-1.388.555-.679.956-1.234 1.203-1.666.247-.37.401-.864.463-1.481.062-.185.092-.586.092-1.203s-.031-1.018-.092-1.203c-.062-.74-.216-1.265-.463-1.573-.247-.432-.648-.987-1.203-1.666-.432-.432-1.141-.895-2.128-1.388l-2.128-.833-2.498-.833-4.812-1.666c-1.666-.617-3.331-1.45-4.997-2.498-2.344-1.542-4.164-3.239-5.46-5.09-1.481-2.036-2.529-4.226-3.146-6.57-.679-2.653-.895-5.09-.648-7.31.185-2.468.864-4.843 2.036-7.125a18.11 18.11 0 0 1 4.164-5.46c1.542-1.542 3.393-2.776 5.552-3.701 2.221-.864 4.411-1.388 6.57-1.573 2.529-.185 4.904.031 7.125.648 2.468.555 4.596 1.419 6.385 2.591 2.036 1.234 3.701 2.684 4.997 4.349 1.357 1.727 2.406 3.64 3.146 5.737.74 2.159 1.11 4.349 1.11 6.57h-15.639c0-1.419-.432-2.406-1.296-2.961-.925-.555-1.727-.925-2.406-1.11h-.092c-.062 0-.123-.031-.185-.093l-.185-.093h-.37c-.494-.123-1.018-.123-1.573 0l-1.851.648c-.617.37-1.11.925-1.481 1.666-.494 1.049-.586 2.067-.278 3.054.308 1.11.925 1.974 1.851 2.591.864.494 1.82.925 2.869 1.295.555.247 1.666.648 3.331 1.203.185.062.432.154.74.278.308.062.709.185 1.203.37a17.86 17.86 0 0 1 1.296.37 35.86 35.86 0 0 0 1.296.555c.74.247 1.388.494 1.943.74 4.133 1.912 7.341 4.627 9.624 8.143 2.283 3.578 3.424 7.557 3.424 11.937 0 4.318-1.141 8.267-3.424 11.845-2.283 3.516-5.491 6.231-9.624 8.143-1.604.74-3.239 1.296-4.904 1.666-2.036.308-3.701.463-4.997.463z" fill="#ff79c6"/></g><g id="D" opacity="0" class="B"><path d="M351.682 78.323h-22.579l-21.839-21.376v21.376h-15.639V10.307h15.639v21.469l21.931-21.469h22.487l-34.887 34.054z" fill="#ff79c6"/></g><g id="E" opacity="0" class="B"><path d="M263.864 78.23c-4.38 0-8.637-.833-12.77-2.498-4.01-1.542-7.773-4.01-11.29-7.403a32.52 32.52 0 0 1-7.31-11.104c-1.727-3.887-2.591-8.205-2.591-12.955s.864-9.13 2.591-13.14c1.666-4.072 4.102-7.711 7.31-10.919 3.331-3.331 7.095-5.83 11.29-7.495 4.133-1.666 8.421-2.498 12.863-2.498 4.318 0 8.575.833 12.77 2.499 4.133 1.666 7.866 4.164 11.197 7.496l-11.012 11.012c-1.789-1.789-3.825-3.146-6.107-4.072-2.468-.864-4.781-1.296-6.94-1.296s-4.442.432-6.848 1.296c-2.283.925-4.318 2.283-6.107 4.072-1.604 1.604-2.93 3.609-3.979 6.015-.925 2.221-1.388 4.565-1.388 7.033s.463 4.781 1.388 6.94c1.049 2.406 2.375 4.411 3.979 6.015 1.789 1.789 3.825 3.115 6.107 3.979a17.65 17.65 0 0 0 6.848 1.388c2.283 0 4.596-.463 6.94-1.388 2.283-.864 4.318-2.19 6.107-3.979l11.012 11.104c-3.331 3.331-7.064 5.799-11.197 7.403-4.133 1.666-8.421 2.499-12.863 2.499z" fill="#ff79c6"/></g><g id="F" opacity="0" class="B"><path d="M200.521 23.358l-18.489 54.964h-7.282l21.403-62.841a7.499 7.499 144.404 0 1 7.098-5.081h4.071a7.374 7.374 36.053 0 1 7.017 5.108l20.282 62.814h-6.449l-18.489-54.964a3.554 3.554 35.704 0 0-3.368-2.421h-2.426a3.554 3.554 144.296 0 0-3.368 2.421z" fill="#ff79c6"/><path d="M183.528 76.875l4.506-1.549a6.802 6.802 133.994 0 0 4.294-4.448l12.067-39.556a.721.721.431 0 1 1.382.01l11.411 39.53a6.464 6.464 45.666 0 0 4.273 4.374l5.217 1.638-18-52.665a3.359 3.359 35.565 0 0-3.179-2.273h-.793a3.359 3.359 144.435 0 0-3.179 2.273z" fill="#bd93f9" fill-rule="evenodd"/></g><g id="G" opacity="0" class="B"><path d="M168.551 25.853v52.469h-15.639V25.853h-12.955V10.122h41.642v15.731z" fill="#ff79c6"/></g><g id="H" opacity="0" class="B"><path d="M117.471 79.617a24.85 24.85 0 0 1-6.385-.833c-2.098-.679-4.133-1.604-6.108-2.776-3.27-2.159-5.861-4.966-7.773-8.421-1.851-3.455-2.776-7.187-2.776-11.197h15.639c0 1.851.401 3.27 1.203 4.257.802 1.049 1.511 1.758 2.128 2.128a7 7 0 0 0 3.609 1.203c1.172.062 2.437-.185 3.794-.74.864-.37 1.573-.833 2.128-1.388.555-.679.956-1.234 1.203-1.666.247-.37.401-.864.463-1.481.062-.185.093-.586.093-1.203s-.031-1.018-.093-1.203c-.062-.74-.216-1.265-.463-1.573-.247-.432-.648-.987-1.203-1.666-.432-.432-1.141-.895-2.128-1.388l-2.128-.833-2.499-.833-4.812-1.666c-1.666-.617-3.331-1.45-4.997-2.498-2.344-1.542-4.164-3.239-5.46-5.09-1.481-2.036-2.529-4.226-3.146-6.57-.679-2.653-.895-5.09-.648-7.31.185-2.468.864-4.843 2.036-7.125a18.11 18.11 0 0 1 4.164-5.46c1.542-1.542 3.393-2.776 5.552-3.701 2.221-.864 4.411-1.388 6.57-1.573 2.529-.185 4.904.031 7.125.648 2.468.555 4.596 1.419 6.385 2.591 2.036 1.234 3.701 2.684 4.997 4.349 1.357 1.727 2.406 3.64 3.146 5.737.74 2.159 1.11 4.349 1.11 6.57h-15.639c0-1.419-.432-2.406-1.296-2.961-.925-.555-1.727-.925-2.406-1.11h-.093c-.062 0-.123-.031-.185-.093l-.185-.093h-.37c-.494-.123-1.018-.123-1.573 0l-1.851.648c-.617.37-1.11.925-1.481 1.666-.494 1.049-.586 2.067-.278 3.054.308 1.11.925 1.974 1.851 2.591.864.494 1.82.925 2.869 1.295.555.247 1.666.648 3.331 1.203.185.062.432.154.74.278.308.062.709.185 1.203.37a17.86 17.86 0 0 1 1.296.37c.123.062.555.247 1.296.555.74.247 1.388.494 1.943.74 4.133 1.912 7.341 4.627 9.624 8.143 2.283 3.578 3.424 7.557 3.424 11.937 0 4.318-1.141 8.267-3.424 11.845-2.283 3.516-5.491 6.231-9.624 8.143-1.604.74-3.239 1.296-4.904 1.666-2.036.308-3.701.463-4.997.463z" fill="#ff79c6"/></g></g></svg>